<mxfile host="Electron" modified="2023-12-14T15:55:58.314Z" agent="Mozilla/5.0 (Macintosh; Intel Mac OS X 10_15_7) AppleWebKit/537.36 (KHTML, like Gecko) draw.io/22.1.2 Chrome/114.0.5735.289 Electron/25.9.4 Safari/537.36" etag="w9KkkgxsQfo9MdojFgYD" version="22.1.2" type="device">
  <diagram name="Page-1" id="HVbF3QgVp-_92f8pf7u4">
    <mxGraphModel dx="954" dy="674" grid="1" gridSize="10" guides="1" tooltips="1" connect="1" arrows="1" fold="1" page="1" pageScale="1" pageWidth="850" pageHeight="1100" math="0" shadow="0">
      <root>
        <mxCell id="0" />
        <mxCell id="1" parent="0" />
        <mxCell id="WHse5ts4Zi2dJhMAOvBU-4" value="Actor" style="shape=umlActor;verticalLabelPosition=bottom;verticalAlign=top;fontColor=none;noLabel=1;" parent="1" vertex="1">
          <mxGeometry x="223" y="140" width="30" height="60" as="geometry" />
        </mxCell>
        <mxCell id="WHse5ts4Zi2dJhMAOvBU-5" value="" style="html=1;points=[[0,0,0,0,5],[0,1,0,0,-5],[1,0,0,0,5],[1,1,0,0,-5]];perimeter=orthogonalPerimeter;outlineConnect=0;targetShapes=umlLifeline;portConstraint=eastwest;newEdgeStyle={&quot;curved&quot;:0,&quot;rounded&quot;:0};" parent="1" vertex="1">
          <mxGeometry x="233" y="230" width="10" height="320" as="geometry" />
        </mxCell>
        <mxCell id="WHse5ts4Zi2dJhMAOvBU-6" value="" style="html=1;points=[[0,0,0,0,5],[0,1,0,0,-5],[1,0,0,0,5],[1,1,0,0,-5]];perimeter=orthogonalPerimeter;outlineConnect=0;targetShapes=umlLifeline;portConstraint=eastwest;newEdgeStyle={&quot;curved&quot;:0,&quot;rounded&quot;:0};" parent="1" vertex="1">
          <mxGeometry x="353" y="250" width="10" height="240" as="geometry" />
        </mxCell>
        <mxCell id="WHse5ts4Zi2dJhMAOvBU-7" value="user" style="text;align=center;fontStyle=0;verticalAlign=middle;spacingLeft=3;spacingRight=3;strokeColor=none;rotatable=0;points=[[0,0.5],[1,0.5]];portConstraint=eastwest;html=1;" parent="1" vertex="1">
          <mxGeometry x="198" y="114" width="80" height="26" as="geometry" />
        </mxCell>
        <mxCell id="WHse5ts4Zi2dJhMAOvBU-8" value="A: RealEstateMap App" style="html=1;whiteSpace=wrap;" parent="1" vertex="1">
          <mxGeometry x="303" y="140" width="110" height="50" as="geometry" />
        </mxCell>
        <mxCell id="WHse5ts4Zi2dJhMAOvBU-9" value="" style="endArrow=none;dashed=1;html=1;rounded=0;jumpSize=6;" parent="1" source="WHse5ts4Zi2dJhMAOvBU-6" edge="1">
          <mxGeometry width="50" height="50" relative="1" as="geometry">
            <mxPoint x="357.5" y="230" as="sourcePoint" />
            <mxPoint x="357.5" y="190" as="targetPoint" />
          </mxGeometry>
        </mxCell>
        <mxCell id="WHse5ts4Zi2dJhMAOvBU-10" value="ViewPrices" style="html=1;verticalAlign=bottom;endArrow=block;curved=0;rounded=0;" parent="1" target="WHse5ts4Zi2dJhMAOvBU-6" edge="1">
          <mxGeometry width="80" relative="1" as="geometry">
            <mxPoint x="243" y="270" as="sourcePoint" />
            <mxPoint x="323" y="270" as="targetPoint" />
            <mxPoint as="offset" />
          </mxGeometry>
        </mxCell>
        <mxCell id="WHse5ts4Zi2dJhMAOvBU-11" value="" style="html=1;points=[[0,0,0,0,5],[0,1,0,0,-5],[1,0,0,0,5],[1,1,0,0,-5]];perimeter=orthogonalPerimeter;outlineConnect=0;targetShapes=umlLifeline;portConstraint=eastwest;newEdgeStyle={&quot;curved&quot;:0,&quot;rounded&quot;:0};" parent="1" vertex="1">
          <mxGeometry x="473" y="270" width="10" height="180" as="geometry" />
        </mxCell>
        <mxCell id="WHse5ts4Zi2dJhMAOvBU-12" value="D: RealEstateData API" style="html=1;whiteSpace=wrap;" parent="1" vertex="1">
          <mxGeometry x="423" y="140" width="110" height="50" as="geometry" />
        </mxCell>
        <mxCell id="WHse5ts4Zi2dJhMAOvBU-13" value="" style="endArrow=none;dashed=1;html=1;rounded=0;exitX=0.5;exitY=-0.028;exitDx=0;exitDy=0;exitPerimeter=0;" parent="1" source="WHse5ts4Zi2dJhMAOvBU-11" edge="1">
          <mxGeometry width="50" height="50" relative="1" as="geometry">
            <mxPoint x="478" y="260" as="sourcePoint" />
            <mxPoint x="477.5" y="190" as="targetPoint" />
          </mxGeometry>
        </mxCell>
        <mxCell id="WHse5ts4Zi2dJhMAOvBU-14" value="getData(ME)" style="html=1;verticalAlign=bottom;endArrow=block;curved=0;rounded=0;" parent="1" edge="1">
          <mxGeometry width="80" relative="1" as="geometry">
            <mxPoint x="363" y="290" as="sourcePoint" />
            <mxPoint x="473" y="290" as="targetPoint" />
          </mxGeometry>
        </mxCell>
        <mxCell id="WHse5ts4Zi2dJhMAOvBU-15" value="" style="html=1;points=[[0,0,0,0,5],[0,1,0,0,-5],[1,0,0,0,5],[1,1,0,0,-5]];perimeter=orthogonalPerimeter;outlineConnect=0;targetShapes=umlLifeline;portConstraint=eastwest;newEdgeStyle={&quot;curved&quot;:0,&quot;rounded&quot;:0};" parent="1" vertex="1">
          <mxGeometry x="593" y="290" width="10" height="90" as="geometry" />
        </mxCell>
        <mxCell id="WHse5ts4Zi2dJhMAOvBU-16" value="M: ML-Model" style="html=1;whiteSpace=wrap;" parent="1" vertex="1">
          <mxGeometry x="543" y="140" width="110" height="50" as="geometry" />
        </mxCell>
        <mxCell id="WHse5ts4Zi2dJhMAOvBU-17" value="" style="endArrow=none;dashed=1;html=1;rounded=0;" parent="1" source="WHse5ts4Zi2dJhMAOvBU-15" edge="1">
          <mxGeometry width="50" height="50" relative="1" as="geometry">
            <mxPoint x="597.5" y="230" as="sourcePoint" />
            <mxPoint x="597.5" y="190" as="targetPoint" />
          </mxGeometry>
        </mxCell>
        <mxCell id="WHse5ts4Zi2dJhMAOvBU-18" value="getPredictions(HID)" style="html=1;verticalAlign=bottom;endArrow=block;curved=0;rounded=0;" parent="1" edge="1">
          <mxGeometry width="80" relative="1" as="geometry">
            <mxPoint x="483" y="310" as="sourcePoint" />
            <mxPoint x="593" y="310" as="targetPoint" />
          </mxGeometry>
        </mxCell>
        <mxCell id="WHse5ts4Zi2dJhMAOvBU-19" value="predictions" style="html=1;verticalAlign=bottom;endArrow=open;dashed=1;endSize=8;curved=0;rounded=0;" parent="1" target="WHse5ts4Zi2dJhMAOvBU-11" edge="1">
          <mxGeometry relative="1" as="geometry">
            <mxPoint x="593" y="360" as="sourcePoint" />
            <mxPoint x="513" y="360" as="targetPoint" />
            <mxPoint as="offset" />
          </mxGeometry>
        </mxCell>
        <mxCell id="WHse5ts4Zi2dJhMAOvBU-20" value="pricePredictions(HID)" style="html=1;verticalAlign=bottom;endArrow=open;dashed=1;endSize=8;curved=0;rounded=0;" parent="1" edge="1">
          <mxGeometry relative="1" as="geometry">
            <mxPoint x="473" y="430" as="sourcePoint" />
            <mxPoint x="363" y="430" as="targetPoint" />
            <mxPoint as="offset" />
          </mxGeometry>
        </mxCell>
        <mxCell id="WHse5ts4Zi2dJhMAOvBU-21" value="renderMap" style="html=1;verticalAlign=bottom;endArrow=open;dashed=1;endSize=8;curved=0;rounded=0;" parent="1" edge="1">
          <mxGeometry relative="1" as="geometry">
            <mxPoint x="353" y="460" as="sourcePoint" />
            <mxPoint x="243" y="460" as="targetPoint" />
            <mxPoint as="offset" />
          </mxGeometry>
        </mxCell>
      </root>
    </mxGraphModel>
  </diagram>
</mxfile>
